<svg width="100" height="84" viewBox="0 0 100 84" fill="none" xmlns="http://www.w3.org/2000/svg">
<path d="M50.9017 5.77678C50.8142 5.63367 50.6936 5.51347 50.5502 5.42615C50.052 5.12287 49.4015 5.27986 49.0975 5.77678L5.4392 77.1259C5.33798 77.2913 5.28445 77.4813 5.28448 77.6751C5.28448 78.2573 5.7577 78.7293 6.34136 78.7293H93.6579C93.8522 78.7293 94.0427 78.6758 94.2085 78.575C94.7067 78.2717 94.8641 77.6229 94.5601 77.126L50.9018 5.77689L50.9017 5.77678ZM55.4123 3.0308L99.0706 74.3799C100.895 77.3616 99.9508 81.254 96.9614 83.0739C95.9664 83.6795 94.8234 84 93.6578 84H6.34126C2.83912 84 0 81.1682 0 77.675C2.32201e-05 76.5124 0.321279 75.3723 0.928482 74.3799L44.5868 3.0308C46.4113 0.049074 50.3137 -0.892779 53.3031 0.926998C54.1639 1.451 54.887 2.17222 55.4123 3.0308ZM49.9995 69.0308C52.3344 69.0308 54.227 67.143 54.227 64.8142C54.227 62.4853 52.3344 60.5975 49.9995 60.5975C47.6647 60.5975 45.772 62.4853 45.772 64.8142C45.772 67.143 47.6647 69.0308 49.9995 69.0308ZM49.9995 23.7016C47.6647 23.7016 45.772 25.5895 45.772 27.9183V51.11C45.772 53.4388 47.6647 55.3267 49.9995 55.3267C52.3344 55.3267 54.227 53.4388 54.227 51.11V27.9183C54.227 25.5895 52.3344 23.7016 49.9995 23.7016Z" fill="#FF0033"/>
</svg>
