<svg width="16" height="17" viewBox="0 0 16 17" fill="none" xmlns="http://www.w3.org/2000/svg">
<g clip-path="url(#clip0_464_53)">
<g clip-path="url(#clip1_464_53)">
<path d="M8.5 0.8125H12.3781C12.775 0.8125 13.1562 0.971875 13.4375 1.25313L15.5594 3.375C15.8406 3.65625 16 4.0375 16 4.43438V11.3125C16 12.1406 15.3281 12.8125 14.5 12.8125H8.5C7.67188 12.8125 7 12.1406 7 11.3125V2.3125C7 1.48438 7.67188 0.8125 8.5 0.8125ZM1.5 4.8125H6V6.8125H2V14.8125H8V13.8125H10V15.3125C10 16.1406 9.32812 16.8125 8.5 16.8125H1.5C0.671875 16.8125 0 16.1406 0 15.3125V6.3125C0 5.48438 0.671875 4.8125 1.5 4.8125Z" fill="#E4E4E7" fill-opacity="0.6"/>
</g>
</g>
<defs>
<clipPath id="clip0_464_53">
<rect width="16" height="16" fill="white" transform="translate(0 0.8125)"/>
</clipPath>
<clipPath id="clip1_464_53">
<path d="M0 0.8125H16V16.8125H0V0.8125Z" fill="white"/>
</clipPath>
</defs>
</svg>
