<svg width="24" height="25" viewBox="0 0 24 25" fill="none" xmlns="http://www.w3.org/2000/svg">
<g clip-path="url(#clip0_464_48)">
<path d="M12 0.8125C12.2156 0.8125 12.4313 0.859375 12.6281 0.948438L21.4547 4.69375C22.486 5.12969 23.2547 6.14688 23.25 7.375C23.2266 12.025 21.3141 20.5328 13.2375 24.4C12.4547 24.775 11.5453 24.775 10.7625 24.4C2.68596 20.5328 0.773459 12.025 0.750021 7.375C0.745334 6.14688 1.51408 5.12969 2.54533 4.69375L11.3766 0.948438C11.5688 0.859375 11.7844 0.8125 12 0.8125ZM12 3.94375V21.6625C18.4688 18.5313 20.2078 11.5984 20.25 7.44063L12 3.94375Z" fill="#00FF88"/>
</g>
<defs>
<clipPath id="clip0_464_48">
<path d="M0 0.8125H24V24.8125H0V0.8125Z" fill="white"/>
</clipPath>
</defs>
</svg>
