<svg width="17" height="17" viewBox="0 0 17 17" fill="none" xmlns="http://www.w3.org/2000/svg">
<g clip-path="url(#clip0_464_80)">
<path d="M10.5625 11.8125C13.6 11.8125 16.0625 9.35 16.0625 6.3125C16.0625 3.275 13.6 0.8125 10.5625 0.8125C7.525 0.8125 5.0625 3.275 5.0625 6.3125C5.0625 6.89688 5.15313 7.4625 5.32188 7.99062L0.28125 13.0312C0.140625 13.1719 0.0625 13.3625 0.0625 13.5625V16.0625C0.0625 16.4781 0.396875 16.8125 0.8125 16.8125H3.3125C3.72813 16.8125 4.0625 16.4781 4.0625 16.0625V14.8125H5.3125C5.72813 14.8125 6.0625 14.4781 6.0625 14.0625V12.8125H7.3125C7.5125 12.8125 7.70312 12.7344 7.84375 12.5938L8.88437 11.5531C9.4125 11.7219 9.97812 11.8125 10.5625 11.8125ZM11.8125 3.8125C12.144 3.8125 12.462 3.9442 12.6964 4.17862C12.9308 4.41304 13.0625 4.73098 13.0625 5.0625C13.0625 5.39402 12.9308 5.71196 12.6964 5.94638C12.462 6.1808 12.144 6.3125 11.8125 6.3125C11.481 6.3125 11.163 6.1808 10.9286 5.94638C10.6942 5.71196 10.5625 5.39402 10.5625 5.0625C10.5625 4.73098 10.6942 4.41304 10.9286 4.17862C11.163 3.9442 11.481 3.8125 11.8125 3.8125Z" fill="#0A0A0F"/>
</g>
<defs>
<clipPath id="clip0_464_80">
<path d="M0.0625 0.8125H16.0625V16.8125H0.0625V0.8125Z" fill="white"/>
</clipPath>
</defs>
</svg>
